<?xml version="1.0" encoding="UTF-8"?>
<svg id="Layer_1" xmlns="http://www.w3.org/2000/svg" version="1.1" viewBox="0 0 400 400">
  <!-- Generator: Adobe Illustrator 29.3.1, SVG Export Plug-In . SVG Version: 2.1.0 Build 151)  -->
  <defs>
    <style>
      .st0 {
        fill: #323c46;
      }
    </style>
  </defs>
  <path class="st0" d="M133.79,322.08c0,1.65-1.85,2.98-4.19,2.98-2.66.25-4.52-1.08-4.52-2.98,0-1.65,1.85-2.98,4.19-2.98,2.42-.25,4.52,1.08,4.52,2.98ZM108.71,318.36c-.56,1.65,1.05,3.56,3.47,4.05,2.1.83,4.52,0,5-1.65s-1.05-3.56-3.47-4.3c-2.1-.58-4.44.25-5,1.9h0ZM144.35,316.95c-2.34.58-3.95,2.15-3.71,4.05.24,1.65,2.34,2.73,4.76,2.15,2.34-.58,3.95-2.15,3.71-3.8-.24-1.57-2.42-2.65-4.76-2.4ZM197.42,0C85.56,0,0,87.1,0,201.82c0,91.73,56.29,170.22,136.69,197.85,10.32,1.9,13.95-4.63,13.95-10.01s-.24-33.42-.24-50.78c0,0-56.45,12.41-68.31-24.65,0,0-9.19-24.07-22.42-30.27,0,0-18.47-12.99,1.29-12.74,0,0,20.08,1.65,31.13,21.34,17.66,31.93,47.26,22.75,58.79,17.29,1.85-13.23,7.1-22.41,12.9-27.87-45.08-5.13-90.56-11.83-90.56-91.4,0-22.75,6.13-34.16,19.03-48.72-2.1-5.38-8.95-27.54,2.1-56.16,16.85-5.38,55.65,22.33,55.65,22.33,16.13-4.63,33.47-7.03,50.65-7.03s34.52,2.4,50.65,7.03c0,0,38.79-27.79,55.65-22.33,11.05,28.7,4.19,50.78,2.1,56.16,12.9,14.64,20.81,26.05,20.81,48.72,0,79.82-47.5,86.19-92.58,91.4,7.42,6.53,13.71,18.94,13.71,38.38,0,27.87-.24,62.36-.24,69.15,0,5.38,3.71,11.91,13.95,10.01,80.65-27.46,135.32-105.95,135.32-197.68C400,87.1,309.27,0,197.42,0ZM78.39,285.27c-1.05.83-.81,2.73.56,4.3,1.29,1.32,3.15,1.9,4.19.83,1.05-.83.81-2.73-.56-4.3-1.29-1.32-3.15-1.9-4.19-.83ZM69.68,278.57c-.56,1.08.24,2.4,1.85,3.23,1.29.83,2.9.58,3.47-.58.56-1.08-.24-2.4-1.85-3.23-1.61-.5-2.9-.25-3.47.58ZM95.81,308.02c-1.29,1.08-.81,3.56,1.05,5.13,1.85,1.9,4.19,2.15,5.24.83,1.05-1.08.56-3.56-1.05-5.13-1.77-1.9-4.19-2.15-5.24-.83ZM86.61,295.86c-1.29.83-1.29,2.98,0,4.88s3.47,2.73,4.52,1.9c1.29-1.08,1.29-3.23,0-5.13-1.13-1.9-3.23-2.73-4.52-1.65h0Z"/>
</svg>