<?xml version="1.0" encoding="UTF-8"?>
<svg id="Layer_1" xmlns="http://www.w3.org/2000/svg" version="1.1" viewBox="0 0 400 400">
  <!-- Generator: Adobe Illustrator 29.3.1, SVG Export Plug-In . SVG Version: 2.1.0 Build 151)  -->
  <defs>
    <style>
      .st0 {
        fill: #323c46;
      }
    </style>
  </defs>
  <path class="st0" d="M371.43,0H28.48C12.77,0,0,12.95,0,28.84v342.32c0,15.89,12.77,28.84,28.48,28.84h342.95c15.71,0,28.57-12.95,28.57-28.84V28.84C400,12.95,387.14,0,371.43,0ZM120.89,342.86h-59.29v-190.89h59.38v190.89h-.09ZM91.25,125.89c-19.02,0-34.38-15.45-34.38-34.38s15.36-34.37,34.38-34.37,34.38,15.45,34.38,34.37-15.36,34.38-34.38,34.38ZM343.12,342.86h-59.29v-92.86c0-22.14-.45-50.62-30.8-50.62s-35.62,24.11-35.62,49.02v94.46h-59.29v-190.89h56.87v26.07h.8c7.95-15,27.32-30.8,56.16-30.8,60,0,71.16,39.55,71.16,90.98v104.64Z"/>
</svg>